<?xml version="1.0" ?><!DOCTYPE svg  PUBLIC '-//W3C//DTD SVG 1.1//EN'  'http://www.w3.org/Graphics/SVG/1.1/DTD/svg11.dtd'><svg height="512px" style="enable-background:new 0 0 512 512;" version="1.1" viewBox="0 0 512 512" width="512px" xml:space="preserve" xmlns="http://www.w3.org/2000/svg" xmlns:xlink="http://www.w3.org/1999/xlink"><g id="card_x2C__income_x2C__pattern_x2C__paying_x2C__payment_x2C__visa_x2C_"><g><path d="M495.951,389.996c0,8.836-7.123,15.959-15.959,15.959H32.011    c-8.839,0-15.962-7.123-15.962-15.959V122.004c0-8.836,7.123-15.959,15.962-15.959h447.981c8.836,0,15.959,7.123,15.959,15.959    V389.996z" style="fill-rule:evenodd;clip-rule:evenodd;fill:#3A58A8;"/><polygon points="236.883,301.083 213.438,301.083 228.136,211     251.581,211   " style="fill-rule:evenodd;clip-rule:evenodd;fill:#FFFFFF;"/><path d="M193.692,211l-22.274,61.955l-2.705-13.347l0,0l-7.847-40.487    c0,0-0.989-8.121-11.181-8.121h-36.881l-0.452,1.533c0,0,11.272,2.348,24.529,10.285l20.38,78.265h24.437L218.939,211H193.692    L193.692,211z" style="fill-rule:evenodd;clip-rule:evenodd;fill:#FFFFFF;"/><path d="M378.096,301.083h21.549L380.889,211h-18.844    c-8.748,0-10.818,6.766-10.818,6.766l-34.994,83.317h24.438l4.875-13.433h29.846L378.096,301.083z M352.303,269.258l12.355-33.729    l6.943,33.729H352.303z" style="fill-rule:evenodd;clip-rule:evenodd;fill:#FFFFFF;"/><path d="M318.131,232.646l3.334-19.298c0,0-10.371-3.969-21.098-3.969    c-11.633,0-39.314,5.139-39.314,29.848c0,23.267,32.457,23.537,32.457,35.799c0,12.176-29.121,10.006-38.682,2.256l-3.519,20.29    c0,0,10.464,5.052,26.515,5.052c15.955,0,40.123-8.299,40.123-30.845c0-23.353-32.732-25.607-32.732-35.8    C285.215,225.881,308.033,227.143,318.131,232.646L318.131,232.646z" style="fill-rule:evenodd;clip-rule:evenodd;fill:#FFFFFF;"/><path d="M168.713,259.608l-7.847-40.487c0,0-0.989-8.121-11.181-8.121    h-36.881l-0.452,1.533c0,0,17.767,3.697,34.807,17.493C163.393,243.194,168.713,259.608,168.713,259.608L168.713,259.608z" style="fill-rule:evenodd;clip-rule:evenodd;fill:#FAA634;"/></g></g><g id="Layer_1"/></svg>