<svg version="1.1" id="Camada_1" xmlns="http://www.w3.org/2000/svg" x="0" y="0" viewBox="0 0 2500 1640.9" style="enable-background:new 0 0 2500 1640.9" xml:space="preserve"><style>.st1{fill:#fff}</style><path d="M1679.2 0c-162.6-.1-321.6 48.4-456.5 139.1-9.3 6.3-73.5 52.2-76.3 54.4-106.7 80.2-178.3 94.1-276.3 69.5-6-1.5-34.1-11.2-42.9-14.6-316.1-119-668.7 40.7-787.7 356.8S80.1 1274 396.2 1393c131.3 49.4 275.6 52.2 408.7 7.9 146.3-43.7 225.7-31.7 317.5 33 18.3 12.9 62.6 41.3 71.7 48 365.3 268.1 878.8 189.2 1146.8-176.1s189.3-878.7-176-1146.8C2024 55.6 1853.9-.1 1679.2 0z" style="fill:#007858"/><path class="st1" d="M1383.2 947.3c-48.1 47.3-122.5 55.2-179.4 19.1l-54.4 86.4c97.1 61.4 223.7 47.9 305.7-32.5l-71.9-73zm-98.1-352c-136.9-2.2-249.6 107-251.8 243.9-.8 49.4 13.2 97.8 40.1 139.2l449-191.9c-26-110.6-123.7-189.4-237.3-191.2zm-148.7 263.1c-8.7-80 49-151.9 129-160.7 48.3-5.3 96.1 13.9 127.4 51.1l-256.4 109.6zm527-374.7v478.5l83 34.5-39.2 94.1-82.3-34.1c-16.6-7.1-30.7-19-40.5-34.1-10.9-17.6-16.5-38.1-15.9-58.8v-480h94.9zm-722.9 0v478.5l82.3 34.5-39.2 94.1-82.3-34.1c-16-7.1-29.6-18.8-39.2-33.5-11-17.6-16.5-38.1-16-58.8V483.7h94.4z"/><path d="M2071.9 711.6c72.5 35 103 122.1 68 194.7v.1l91.8 44.1c59.2-123.4 7.1-271.5-116.3-330.7-91-43.6-199.3-27.8-273.9 40.1l68.7 75.4c43.9-40.4 108.1-49.7 161.7-23.7z" style="fill:#c7d540"/><path class="st1" d="M1945.5 974.6c-72.6-35-103.2-122.1-68.3-194.7l-91.8-44.2c-58.8 123.6-6.2 271.5 117.5 330.3 90.5 43 197.9 27.3 272.4-39.7l-68.7-75.3c-44 39.8-107.6 49.1-161.1 23.6zm-1193.2 6.9V843c0-136.4-110.6-246.9-246.9-246.9s-247 110.5-247 246.9 110.6 247 247 247c38.3 0 76-8.9 110.3-26L576 971.1c-70.6 39-159.5 13.5-198.5-57.1-12-21.7-18.3-46.1-18.2-70.9-.1-23.9 5.6-47.4 16.8-68.6 19.9-37.3 54.9-64.2 96.1-73.7 10.8-2.6 21.8-3.9 32.9-3.9 80.8-.1 146.4 65.4 146.5 146.2v137.3c-.6 20.7 4.9 41.2 15.9 58.8 9.9 15.1 23.9 26.9 40.5 34.1l46.3 18.3 39.3-94.1-41.3-16z"/></svg>