<?xml version="1.0" ?><!DOCTYPE svg  PUBLIC '-//W3C//DTD SVG 1.1//EN'  'http://www.w3.org/Graphics/SVG/1.1/DTD/svg11.dtd'><svg height="512px" style="enable-background:new 0 0 512 512;" version="1.1" viewBox="0 0 512 512" width="512px" xml:space="preserve" xmlns="http://www.w3.org/2000/svg" xmlns:xlink="http://www.w3.org/1999/xlink"><g id="_x31_6-amex_x2C__Credit_card"><g><g><path d="M432.121,329.196v-3.595c-8.621,4.47-3.114,3.595-125.077,3.595c0-20.117,0.081-19.078,0-20.117     C305.688,309,304.49,309,299.54,309c0,14.287-0.078,5.428-0.078,20.196h-31.608c0-9.66,0.08-12.213,0.08-23.31     c-7.982,4.79-18.199,5.109-27.379,4.949c0,11.732-0.08,6.626-0.08,18.36h-39.03c-4.071-4.553-2.156-2.478-12.292-13.891     c-2.556,2.794-10.218,11.097-12.852,13.891H110.85v-73.675h66.329c3.991,4.471,2.235,2.475,12.371,13.728     c2.555-2.792,9.738-10.696,12.533-13.728h46.295c7.821,0,14.368,1.518,19.396,4.471v-4.471c43.342,0,51.324-1.118,60.424,4.07     v-4.07h62.419v4.15c9.099-5.508,15.644-4.15,51.802-4.15v3.991c8.222-4.71,13.249-4.15,43.343-3.991V115.519     c0-21.152-17.161-38.314-38.315-38.314H64.314c-21.152,0-38.313,17.162-38.313,38.314v87.641     c7.504-17.48,15.725-36.716,18.438-43.021h31.689c3.433,8.061,1.276,2.952,7.184,16.841v-16.841h36.717     c2.314,4.947,8.86,19.155,11.095,23.945c4.629-10.856,8.063-19.078,10.058-23.945h82.213c0-0.081,9.18,0,9.26,0     c34.88,0.158,42.782-0.64,51.402,4.229v-4.229h31.85v7.422c6.065-4.869,14.288-7.422,24.503-7.422h22.03     c0,0.399,1.519,0.239,1.837,0.239h25.86c3.354,7.821,2.076,4.788,7.023,16.442v-16.442h34.563     c3.911,6.385-0.798-1.437,8.938,14.686v-14.686h31.849v73.434h-33.204c-4.312-7.185-1.118-1.757-10.536-17.48v17.48h-42.146     c-5.107-11.814-0.081-0.24-5.268-12.213h-15.167c-3.351,7.981-1.755,4.151-5.107,12.213h-21.393     c-9.815,0-17.799-2.395-23.705-7.104v7.104h-53.079c-0.24-11.095-0.081-19.796-0.081-19.796     c-1.437-0.239-2.715-0.159-7.822-0.159v20.034H146.848v-9.1c-1.996,4.47-2.155,4.71-4.071,9.1H119.23     c-3.193-7.104-2.314-5.108-4.07-9.1v9.1H72.935c-3.353-8.062-1.756-4.23-5.108-12.212H52.501     c-3.352,7.981-1.755,4.15-5.108,12.212H26.16V396.48c0,21.155,17.162,38.315,38.314,38.315h383.212     c21.15,0,38.313-17.16,38.313-38.315v-72.154C475.862,330.95,459.897,329.196,432.121,329.196z" style="fill:#016FD0;"/><rect height="55.313" style="fill:#016FD0;" width="13.489" x="293.235" y="170.754"/><path d="M285.652,185.599c0-13.09-11.254-14.685-21.87-14.685l-31.209-0.241v55.314h13.09v-20.034h14.368     c14.687,0,11.573,8.222,11.813,20.034h13.251v-10.776c0-7.342-1.198-12.052-8.781-14.685     C282.222,198.131,285.732,191.985,285.652,185.599z M262.187,194.619h-16.523v-12.213h16.763c4.071,0,8.539,0.799,8.539,5.906     C270.965,193.581,266.734,194.619,262.187,194.619z" style="fill:#016FD0;"/><polygon points="223.474,182.406 223.474,170.754 179.175,170.754 179.175,226.067 223.474,226.067      223.474,214.653 192.424,214.653 192.424,203.639 222.596,203.639 222.596,192.384 192.424,192.384 192.424,182.406    " style="fill:#016FD0;"/><path d="M169.357,226.067v-55.313h-22.031l-15.724,37.514l-17.322-37.514H92.65v52.439l-22.429-52.439     H50.665l-23.707,55.313h14.289l5.107-12.212h27.538l5.108,12.212h26.979v-43.262l19.156,43.262h11.654l19.156-43.262v43.262     H169.357z M51.063,202.361l8.94-22.03l9.18,22.03H51.063z" style="fill:#016FD0;"/><path d="M248.856,266.058h-42.064l-16.763,18.197l-16.363-18.197h-53.078l-0.081,55.313h52.203l17-18.357     l16.283,18.357h25.702l0.079-18.596c15.086,0,39.352,3.67,39.352-18.598C271.126,270.367,261.308,266.058,248.856,266.058z      M166.004,309.718h-32.407v-11.015h28.975V287.45h-28.975v-9.979h33.285l14.288,16.125L166.004,309.718z M218.524,316.264     l-20.193-22.429l20.193-21.871V316.264z M248.697,291.521h-16.923v-14.05h17.161c4.471,0,8.143,1.836,8.143,6.707     C257.078,289.284,253.406,291.521,248.697,291.521z" style="fill:#016FD0;"/><path d="M313.191,198.85c0,17.719,8.141,27.138,26.339,27.138h15.328l5.105-12.212h27.379l5.267,12.212     h26.901v-41.426l24.902,41.426h18.839v-55.073h-13.491v38.393l-23.228-38.393h-20.194v52.2l-22.268-52.2h-19.796l-18.758,43.5     h-5.906c-10.617,0-12.851-6.466-12.851-15.884c0-18.997,12.531-15.964,26.419-15.725v-12.133h-12.852     C321.572,170.673,313.191,180.251,313.191,198.85z M373.934,180.331l8.938,22.03h-18.198L373.934,180.331z" style="fill:#016FD0;"/><path d="M415.597,309.479h-25.699l-0.081,11.813h25.703c11.813,0,20.912-4.47,20.912-17.559     c0-26.501-34.241-8.94-34.241-20.995c0-4.468,3.91-5.106,7.342-5.106h24.266v-11.655h-26.5c-10.217,0-18.758,5.27-18.758,16.522     c0,26.341,34.081,9.979,34.081,21.872C422.544,308.682,418.87,309.479,415.597,309.479z" style="fill:#016FD0;"/><path d="M330.591,280.984c0-13.091-11.254-14.927-21.63-14.927h-31.45l-0.078,55.313h13.25l0.077-20.192     h14.05c8.78,0,11.813,1.597,11.813,11.015l-0.08,9.178h13.25l0.081-11.014c0-7.104-1.438-12.053-8.782-14.687     C327.239,293.195,330.513,287.05,330.591,280.984z M307.284,289.923H290.76v-12.452h16.764c4.071,0,8.541,0.8,8.541,5.907     C316.064,288.886,311.755,289.923,307.284,289.923z" style="fill:#016FD0;"/><polygon points="381.915,277.471 381.915,266.058 337.854,266.058 337.775,321.371 381.836,321.371      381.915,309.957 351.104,309.718 351.104,298.703 381.356,298.703 381.356,287.45 351.185,287.45 351.185,277.471    " style="fill:#016FD0;"/><path d="M461.097,277.711h24.025v-11.653H458.86c-10.217,0-18.996,5.268-18.996,16.523     c0,26.34,34.082,10.218,34.082,21.87c0,4.07-3.432,5.108-6.704,5.108H441.7l-0.08,11.812h25.542     c6.705,0,14.049-1.438,17.96-7.103v-20.595c-8.383-11.014-31.369-1.037-31.369-10.774     C453.753,278.271,457.423,277.711,461.097,277.711z" style="fill:#016FD0;"/></g></g></g><g id="Layer_1"/></svg>